<?xml version="1.0" standalone="no"?>
<!DOCTYPE svg PUBLIC "-//W3C//DTD SVG 20010904//EN"
 "http://www.w3.org/TR/2001/REC-SVG-20010904/DTD/svg10.dtd">
<svg version="1.0" xmlns="http://www.w3.org/2000/svg"
 width="512.000000pt" height="512.000000pt" viewBox="0 0 512.000000 512.000000"
 preserveAspectRatio="xMidYMid meet">
<metadata>
Created by potrace 1.11, written by Peter Selinger 2001-2013
</metadata>
<g transform="translate(0.000000,512.000000) scale(0.100000,-0.100000)"
fill="#000000" stroke="none">
<path d="M1092 5035 c-209 -46 -374 -209 -417 -412 -22 -103 -22 -4038 0
-4131 48 -203 204 -359 406 -407 56 -13 249 -15 1480 -15 1378 0 1418 1 1493
20 105 27 169 63 247 141 76 75 130 175 149 274 8 43 10 618 8 2085 l-3 2025
-23 65 c-65 182 -217 315 -407 355 -101 21 -2836 21 -2933 0z m2924 -280 c61
-25 112 -73 141 -133 l28 -57 0 -2010 0 -2010 -23 -45 c-33 -63 -76 -105 -136
-132 l-51 -23 -1415 0 -1415 0 -57 28 c-64 31 -101 70 -132 137 l-21 45 0
2005 0 2005 22 45 c12 25 30 54 40 65 29 33 90 76 120 85 15 4 666 9 1446 9
1233 1 1422 -1 1453 -14z"/>
<path d="M2390 4364 c-122 -33 -218 -124 -255 -243 -4 -13 -20 -35 -35 -48
-55 -46 -76 -224 -42 -358 15 -57 24 -74 49 -90 20 -13 44 -47 68 -97 90 -183
255 -298 409 -285 147 12 281 118 363 288 24 48 47 82 64 92 37 21 55 51 73
122 31 119 13 253 -43 318 -15 17 -42 61 -59 97 -57 118 -121 172 -247 205
-76 19 -270 19 -345 -1z m304 -283 c26 -24 40 -57 51 -123 3 -21 17 -51 32
-68 l25 -31 -24 -22 c-14 -13 -33 -45 -43 -73 -35 -99 -76 -174 -112 -203 -50
-41 -77 -46 -119 -20 -55 34 -85 85 -145 247 -6 18 -23 42 -37 52 l-25 20 26
20 c26 20 40 55 51 121 7 42 39 86 70 100 11 5 67 8 123 6 92 -2 104 -4 127
-26z"/>
<path d="M2390 3124 c-487 -61 -732 -319 -780 -821 -11 -114 -11 -124 8 -166
39 -88 -29 -82 942 -82 953 0 895 -4 937 70 27 48 28 84 8 239 -29 222 -99
386 -220 514 -159 168 -363 242 -690 247 -93 2 -186 1 -205 -1z m310 -275
c202 -18 333 -79 416 -192 62 -83 98 -173 118 -289 l7 -38 -680 0 -680 0 5 33
c12 72 48 175 79 232 115 207 355 290 735 254z"/>
<path d="M1387 1676 c-49 -18 -67 -34 -84 -73 -19 -47 -16 -85 10 -124 49 -74
-42 -69 1250 -69 961 0 1163 2 1191 14 41 17 74 58 82 104 9 46 -23 110 -69
138 -31 18 -63 19 -1187 21 -949 2 -1162 0 -1193 -11z"/>
<path d="M1361 1022 c-40 -21 -71 -73 -71 -117 0 -44 31 -96 71 -117 32 -17
90 -18 1202 -18 1305 0 1214 -5 1257 71 36 65 15 138 -53 179 -31 19 -60 20
-1202 20 -1114 0 -1172 -1 -1204 -18z"/>
</g>
</svg>
